<?xml version="1.0" encoding="UTF-8"?>
<svg id="Capa_1" data-name="Capa 1" xmlns="http://www.w3.org/2000/svg" version="1.1" xmlns:xlink="http://www.w3.org/1999/xlink" viewBox="0 0 147.7 21">
  <defs>
    <style>
      .cls-1 {
        fill: url(#Degradado_sin_nombre_2-2);
      }

      .cls-1, .cls-2, .cls-3 {
        stroke-width: 0px;
      }

      .cls-2 {
        fill: #fff;
      }

      .cls-4 {
        mask: url(#mask);
      }

      .cls-3 {
        fill: url(#Degradado_sin_nombre_2);
      }

      .cls-5 {
        filter: url(#luminosity-invert-noclip);
      }
    </style>
    <filter id="luminosity-invert-noclip" x="0" y=".7" width="48.8" height="20.3" color-interpolation-filters="sRGB" filterUnits="userSpaceOnUse">
      <feColorMatrix result="cm" values="-1 0 0 0 1 0 -1 0 0 1 0 0 -1 0 1 0 0 0 1 0"/>
      <feFlood flood-color="#fff" result="bg"/>
      <feBlend in="cm" in2="bg"/>
    </filter>
    <linearGradient id="Degradado_sin_nombre_2" data-name="Degradado sin nombre 2" x1="33.1" y1="8.3" x2="25.6" y2="14.9" gradientUnits="userSpaceOnUse">
      <stop offset=".3" stop-color="#000"/>
      <stop offset=".4" stop-color="#020202"/>
      <stop offset=".4" stop-color="#0c0c0c"/>
      <stop offset=".5" stop-color="#1c1c1c"/>
      <stop offset=".5" stop-color="#323232"/>
      <stop offset=".6" stop-color="#505050"/>
      <stop offset=".6" stop-color="#747474"/>
      <stop offset=".7" stop-color="#9e9e9e"/>
      <stop offset=".7" stop-color="#cecece"/>
      <stop offset=".7" stop-color="#fff"/>
    </linearGradient>
    <linearGradient id="Degradado_sin_nombre_2-2" data-name="Degradado sin nombre 2" x1="1319.3" y1="3523.6" x2="1311.8" y2="3530.1" gradientTransform="translate(1335.1 3536.9) rotate(-180)" xlink:href="#Degradado_sin_nombre_2"/>
    <mask id="mask" x="0" y=".7" width="48.8" height="20.3" maskUnits="userSpaceOnUse">
      <g class="cls-5">
        <g>
          <path class="cls-3" d="M39.1,2.5h-2.7c-1.6,0-3.1.8-4,2.1l-4.8,7,2.6,3.7,8.9-12.8Z"/>
          <path class="cls-1" d="M18.7,6.4l-8.9,12.8h2.7c1.6,0,3.1-.8,4-2.1l4.8-7-2.6-3.7h0Z"/>
        </g>
      </g>
    </mask>
  </defs>
  <g>
    <path class="cls-2" d="M67.7,2.5h3v16.8h-3l-9.4-12.6v12.6h-3V2.5h3.5l8.9,11.9V2.5Z"/>
    <path class="cls-2" d="M85.7,14h-9.8c.2,1.6,1.6,2.9,3.5,2.9,1.4,0,2.6-.6,3.1-1.6h3c-.8,2.7-3.2,4.3-6.2,4.3s-6.5-3-6.5-6.6,2.6-6.6,6.5-6.6,6.7,3.3,6.4,7.6ZM75.9,11.7h6.8c-.4-1.6-1.7-2.6-3.4-2.6s-3,1-3.4,2.6Z"/>
    <path class="cls-2" d="M102.3,6.8h3l-4.1,12.5h-2.8l-2.7-8.5-2.6,8.5h-2.8l-4.1-12.5h3l2.6,8.4,2.6-8.4h2.7l2.6,8.4,2.5-8.4Z"/>
    <path class="cls-2" d="M116.9,6.8v2.8h-6.8c-.5,0-.8.3-.8.8s.3.7.6.8l4.9,1.1c1.8.4,3,1.7,3,3.4s-1.6,3.6-3.8,3.6h-7.2v-2.8h7.2c.5,0,.8-.3.8-.9s-.2-.7-.7-.8l-4.9-1.1c-1.8-.4-2.9-1.7-2.9-3.4s1.6-3.6,3.8-3.6h6.9Z"/>
    <path class="cls-2" d="M129.7,6.8h2.9v12.5h-2.9v-1.8h-.1c-.8,1.3-2.3,2.2-4.2,2.2-3.5,0-6.1-2.7-6.1-6.6s2.6-6.6,6.1-6.6c1.9,0,3.4.9,4.2,2.1h.1v-1.7ZM129.7,13c0-2.1-1.5-3.8-3.8-3.8s-3.8,1.7-3.8,3.8,1.5,3.8,3.8,3.8,3.8-1.7,3.8-3.8Z"/>
    <path class="cls-2" d="M147.7,12.1v7.2h-2.9v-6.7c0-2-1.2-3.3-3-3.3s-3.4,1.5-3.4,3.6v6.3h-2.9V6.8h2.8v1.6h.1c.9-1.2,2.4-2,4-2,3.1,0,5.1,2.1,5.1,5.6Z"/>
  </g>
  <g class="cls-4">
    <path class="cls-2" d="M46.1,2.5c-1.6,0-3.1.8-4,2.1l-7.5,10.7c-1.2,1.8-3,1.8-4.3.2v-.2c-.1,0,8.8-12.8,8.8-12.8h-2.7c-1.6,0-3.1.8-4,2.1l-4.8,7-5.4-7.6c-1.5-2.1-3.5-3.3-5.7-3.3-2.2,0-4.3,1.2-5.7,3.3L0,19.3h2.7c1.6,0,3.1-.8,4-2.1l7.6-10.8c1.3-1.8,3.1-1.8,4.4,0l-9,12.9h2.7c1.6,0,3.1-.8,4-2.1l4.9-7.1,5.4,7.6c1.5,2.1,3.5,3.3,5.7,3.3s4.3-1.2,5.7-3.3l10.7-15.3h-2.7Z"/>
  </g>
</svg>